<svg xmlns="http://www.w3.org/2000/svg" viewBox="0 0 512 512">
  <rect width="512" height="512" fill="rgb(246,243,236)"/>
  <circle cx="256" cy="256" r="215" fill="none" stroke="rgb(85,100,63)" stroke-width="6"/>
  <line x1="256" y1="114" x2="256" y2="198" stroke="rgb(85,100,63)" stroke-width="8"/>
  <path d="M256.0,191.0 L256.0,191.0 L256.0,191.0 L256.0,190.9 L256.0,190.8 L256.0,190.7 L256.0,190.6 L256.0,190.5 L256.0,190.3 L256.1,190.1 L256.1,189.9 L256.1,189.7 L256.1,189.4 L256.2,189.2 L256.2,188.9 L256.2,188.6 L256.3,188.3 L256.4,187.9 L256.4,187.5 L256.5,187.2 L256.6,186.8 L256.7,186.3 L256.8,185.9 L256.9,185.4 L257.0,185.0 L257.1,184.5 L257.3,184.0 L257.4,183.5 L257.6,182.9 L257.8,182.4 L257.9,181.8 L258.1,181.2 L258.3,180.6 L258.6,180.0 L258.8,179.4 L259.0,178.8 L259.3,178.2 L259.6,177.5 L259.9,176.9 L260.2,176.2 L260.5,175.5 L260.8,174.8 L261.2,174.1 L261.5,173.4 L261.9,172.7 L262.3,172.0 L262.7,171.3 L263.1,170.6 L263.5,169.9 L264.0,169.2 L264.5,168.4 L264.9,167.7 L265.4,167.0 L265.9,166.2 L266.5,165.5 L267.0,164.8 L267.6,164.1 L268.2,163.3 L268.8,162.6 L269.4,161.9 L270.0,161.2 L270.6,160.5 L271.3,159.8 L272.0,159.1 L272.7,158.4 L273.4,157.7 L274.1,157.0 L274.8,156.4 L275.6,155.7 L276.4,155.1 L277.1,154.4 L277.9,153.8 L278.7,153.2 L279.6,152.6 L280.4,152.0 L281.3,151.4 L282.1,150.9 L283.0,150.3 L283.9,149.8 L284.8,149.3 L285.7,148.8 L286.7,148.3 L287.6,147.8 L288.6,147.4 L289.6,147.0 L290.5,146.5 L291.5,146.1 L292.5,145.8 L293.5,145.4 L294.6,145.1 L295.6,144.8 L296.6,144.5 L297.7,144.2 L298.7,143.9 L299.8,143.7 L300.9,143.5 L302.0,143.3 L303.1,143.1 L304.1,143.0 L305.2,142.8 L306.3,142.7 L307.5,142.6 L308.6,142.6 L309.7,142.6 L310.8,142.5 L311.9,142.5 L313.1,142.6 L314.2,142.6 L315.3,142.7 L316.4,142.8 L317.6,142.9 L318.7,143.1 L319.8,143.3 L320.9,143.5 L322.1,143.7 L323.2,143.9 L324.3,144.2 L325.4,144.5 L326.5,144.8 L327.6,145.1 L328.7,145.5 L329.8,145.9 L330.9,146.3 L332.0,146.7 L333.1,147.2 L334.2,147.6 L335.2,148.1 L336.3,148.6 L337.3,149.2 L338.4,149.7 L339.4,150.3 L340.4,150.9 L341.4,151.5 L342.4,152.2 L343.4,152.8 L344.3,153.5 L345.3,154.2 L346.2,154.9 L347.1,155.6 L348.0,156.4 L348.9,157.2 L349.8,157.9 L350.7,158.7 L351.5,159.6 L352.3,160.4 L353.2,161.3 L354.0,162.1 L354.7,163.0 L355.5,163.9 L356.2,164.8 L356.9,165.7 L357.6,166.7 L358.3,167.6 L359.0,168.6 L359.6,169.6 L360.2,170.6 L360.8,171.6 L361.4,172.6 L361.9,173.6 L362.5,174.6 L363.0,175.7 L363.5,176.7 L363.9,177.8 L364.3,178.9 L364.8,179.9 L365.1,181.0 L365.5,182.1 L365.9,183.2 L366.2,184.3 L366.5,185.4 L366.7,186.6 L367.0,187.7 L367.2,188.8 L367.4,189.9 L367.5,191.1 L367.7,192.2 L367.8,193.4 L367.9,194.5 L367.9,195.7 L368.0,196.8 L368.0,198.0 L368.0,199.2 L367.9,200.3 L367.9,201.5 L367.8,202.7 L367.7,203.8 L367.5,205.0 L367.4,206.2 L367.2,207.3 L367.0,208.5 L366.7,209.7 L366.5,210.8 L366.2,212.0 L365.9,213.2 L365.5,214.3 L365.1,215.5 L364.8,216.7 L364.3,217.8 L363.9,219.0 L363.5,220.1 L363.0,221.3 L362.5,222.4 L361.9,223.6 L361.4,224.7 L360.8,225.9 L360.2,227.5 L359.6,229.3 L359.0,231.1 L358.3,232.8 L357.6,234.6 L356.9,236.3 L356.2,238.0 L355.5,239.8 L354.7,241.5 L354.0,243.2 L353.2,244.9 L352.3,246.6 L351.5,248.3 L350.7,250.0 L349.8,251.7 L348.9,253.4 L348.0,255.0 L347.1,256.7 L346.2,258.4 L345.3,260.0 L344.3,261.7 L343.4,263.3 L342.4,264.9 L341.4,266.6 L340.4,268.2 L339.4,269.8 L338.4,271.4 L337.3,273.0 L336.3,274.6 L335.2,276.2 L334.2,277.8 L333.1,279.4 L332.0,281.0 L330.9,282.5 L329.8,284.1 L328.7,285.7 L327.6,287.2 L326.5,288.8 L325.4,290.3 L324.3,291.9 L323.2,293.4 L322.1,294.9 L320.9,296.5 L319.8,298.0 L318.7,299.5 L317.6,301.0 L316.4,302.5 L315.3,304.0 L314.2,305.5 L313.1,307.0 L311.9,308.5 L310.8,310.0 L309.7,311.4 L308.6,312.9 L307.5,314.4 L306.3,315.8 L305.2,317.3 L304.1,318.8 L303.1,320.2 L302.0,321.7 L300.9,323.1 L299.8,324.5 L298.7,326.0 L297.7,327.4 L296.6,328.8 L295.6,330.2 L294.6,331.6 L293.5,333.1 L292.5,334.5 L291.5,335.9 L290.5,337.2 L289.6,338.6 L288.6,340.0 L287.6,341.4 L286.7,342.8 L285.7,344.1 L284.8,345.5 L283.9,346.8 L283.0,348.2 L282.1,349.5 L281.3,350.9 L280.4,352.2 L279.6,353.5 L278.7,354.8 L277.9,356.1 L277.1,357.4 L276.4,358.7 L275.6,360.0 L274.8,361.2 L274.1,362.5 L273.4,363.7 L272.7,365.0 L272.0,366.2 L271.3,367.4 L270.6,368.7 L270.0,369.9 L269.4,371.0 L268.8,372.2 L268.2,373.4 L267.6,374.5 L267.0,375.7 L266.5,376.8 L265.9,377.9 L265.4,379.0 L264.9,380.1 L264.5,381.2 L264.0,382.3 L263.5,383.3 L263.1,384.3 L262.7,385.4 L262.3,386.4 L261.9,387.4 L261.5,388.3 L261.2,389.3 L260.8,390.2 L260.5,391.1 L260.2,392.0 L259.9,392.9 L259.6,393.8 L259.3,394.6 L259.0,395.5 L258.8,396.3 L258.6,397.1 L258.3,397.8 L258.1,398.6 L257.9,399.3 L257.8,400.0 L257.6,400.7 L257.4,401.4 L257.3,402.0 L257.1,402.6 L257.0,403.2 L256.9,403.8 L256.8,404.4 L256.7,404.9 L256.6,405.4 L256.5,405.9 L256.4,406.4 L256.4,406.8 L256.3,407.2 L256.2,407.6 L256.2,408.0 L256.2,408.3 L256.1,408.6 L256.1,408.9 L256.1,409.2 L256.1,409.4 L256.0,409.6 L256.0,409.8 L256.0,410.0 L256.0,410.1 L256.0,410.2 L256.0,410.3 L256.0,410.4 L256.0,410.4 L256.0,410.5 L256.0,410.4 L256.0,410.4 L256.0,410.3 L256.0,410.2 L256.0,410.1 L256.0,410.0 L256.0,409.8 L256.0,409.6 L255.9,409.4 L255.9,409.2 L255.9,408.9 L255.9,408.6 L255.8,408.3 L255.8,408.0 L255.8,407.6 L255.7,407.2 L255.6,406.8 L255.6,406.4 L255.5,405.9 L255.4,405.4 L255.3,404.9 L255.2,404.4 L255.1,403.8 L255.0,403.2 L254.9,402.6 L254.7,402.0 L254.6,401.4 L254.4,400.7 L254.2,400.0 L254.1,399.3 L253.9,398.6 L253.7,397.8 L253.4,397.1 L253.2,396.3 L253.0,395.5 L252.7,394.6 L252.4,393.8 L252.1,392.9 L251.8,392.0 L251.5,391.1 L251.2,390.2 L250.8,389.3 L250.5,388.3 L250.1,387.4 L249.7,386.4 L249.3,385.4 L248.9,384.3 L248.5,383.3 L248.0,382.3 L247.5,381.2 L247.1,380.1 L246.6,379.0 L246.1,377.9 L245.5,376.8 L245.0,375.7 L244.4,374.5 L243.8,373.4 L243.2,372.2 L242.6,371.0 L242.0,369.9 L241.4,368.7 L240.7,367.4 L240.0,366.2 L239.3,365.0 L238.6,363.7 L237.9,362.5 L237.2,361.2 L236.4,360.0 L235.6,358.7 L234.9,357.4 L234.1,356.1 L233.3,354.8 L232.4,353.5 L231.6,352.2 L230.7,350.9 L229.9,349.5 L229.0,348.2 L228.1,346.8 L227.2,345.5 L226.3,344.1 L225.3,342.8 L224.4,341.4 L223.4,340.0 L222.4,338.6 L221.5,337.2 L220.5,335.9 L219.5,334.5 L218.5,333.1 L217.4,331.6 L216.4,330.2 L215.4,328.8 L214.3,327.4 L213.3,326.0 L212.2,324.5 L211.1,323.1 L210.0,321.7 L208.9,320.2 L207.9,318.8 L206.8,317.3 L205.7,315.8 L204.5,314.4 L203.4,312.9 L202.3,311.4 L201.2,310.0 L200.1,308.5 L198.9,307.0 L197.8,305.5 L196.7,304.0 L195.6,302.5 L194.4,301.0 L193.3,299.5 L192.2,298.0 L191.1,296.5 L189.9,294.9 L188.8,293.4 L187.7,291.9 L186.6,290.3 L185.5,288.8 L184.4,287.2 L183.3,285.7 L182.2,284.1 L181.1,282.5 L180.0,281.0 L178.9,279.4 L177.8,277.8 L176.8,276.2 L175.7,274.6 L174.7,273.0 L173.6,271.4 L172.6,269.8 L171.6,268.2 L170.6,266.6 L169.6,264.9 L168.6,263.3 L167.7,261.7 L166.7,260.0 L165.8,258.4 L164.9,256.7 L164.0,255.0 L163.1,253.4 L162.2,251.7 L161.3,250.0 L160.5,248.3 L159.7,246.6 L158.8,244.9 L158.0,243.2 L157.3,241.5 L156.5,239.8 L155.8,238.0 L155.1,236.3 L154.4,234.6 L153.7,232.8 L153.0,231.1 L152.4,229.3 L151.8,227.5 L151.2,225.9 L150.6,224.7 L150.1,223.6 L149.5,222.4 L149.0,221.3 L148.5,220.1 L148.1,219.0 L147.7,217.8 L147.2,216.7 L146.9,215.5 L146.5,214.3 L146.1,213.2 L145.8,212.0 L145.5,210.8 L145.3,209.7 L145.0,208.5 L144.8,207.3 L144.6,206.2 L144.5,205.0 L144.3,203.8 L144.2,202.7 L144.1,201.5 L144.1,200.3 L144.0,199.2 L144.0,198.0 L144.0,196.8 L144.1,195.7 L144.1,194.5 L144.2,193.4 L144.3,192.2 L144.5,191.1 L144.6,189.9 L144.8,188.8 L145.0,187.7 L145.3,186.6 L145.5,185.4 L145.8,184.3 L146.1,183.2 L146.5,182.1 L146.9,181.0 L147.2,179.9 L147.7,178.9 L148.1,177.8 L148.5,176.7 L149.0,175.7 L149.5,174.6 L150.1,173.6 L150.6,172.6 L151.2,171.6 L151.8,170.6 L152.4,169.6 L153.0,168.6 L153.7,167.6 L154.4,166.7 L155.1,165.7 L155.8,164.8 L156.5,163.9 L157.3,163.0 L158.0,162.1 L158.8,161.3 L159.7,160.4 L160.5,159.6 L161.3,158.7 L162.2,157.9 L163.1,157.2 L164.0,156.4 L164.9,155.6 L165.8,154.9 L166.7,154.2 L167.7,153.5 L168.6,152.8 L169.6,152.2 L170.6,151.5 L171.6,150.9 L172.6,150.3 L173.6,149.7 L174.7,149.2 L175.7,148.6 L176.8,148.1 L177.8,147.6 L178.9,147.2 L180.0,146.7 L181.1,146.3 L182.2,145.9 L183.3,145.5 L184.4,145.1 L185.5,144.8 L186.6,144.5 L187.7,144.2 L188.8,143.9 L189.9,143.7 L191.1,143.5 L192.2,143.3 L193.3,143.1 L194.4,142.9 L195.6,142.8 L196.7,142.7 L197.8,142.6 L198.9,142.6 L200.1,142.5 L201.2,142.5 L202.3,142.6 L203.4,142.6 L204.5,142.6 L205.7,142.7 L206.8,142.8 L207.9,143.0 L208.9,143.1 L210.0,143.3 L211.1,143.5 L212.2,143.7 L213.3,143.9 L214.3,144.2 L215.4,144.5 L216.4,144.8 L217.4,145.1 L218.5,145.4 L219.5,145.8 L220.5,146.1 L221.5,146.5 L222.4,147.0 L223.4,147.4 L224.4,147.8 L225.3,148.3 L226.3,148.8 L227.2,149.3 L228.1,149.8 L229.0,150.3 L229.9,150.9 L230.7,151.4 L231.6,152.0 L232.4,152.6 L233.3,153.2 L234.1,153.8 L234.9,154.4 L235.6,155.1 L236.4,155.7 L237.2,156.4 L237.9,157.0 L238.6,157.7 L239.3,158.4 L240.0,159.1 L240.7,159.8 L241.4,160.5 L242.0,161.2 L242.6,161.9 L243.2,162.6 L243.8,163.3 L244.4,164.1 L245.0,164.8 L245.5,165.5 L246.1,166.2 L246.6,167.0 L247.1,167.7 L247.5,168.4 L248.0,169.2 L248.5,169.9 L248.9,170.6 L249.3,171.3 L249.7,172.0 L250.1,172.7 L250.5,173.4 L250.8,174.1 L251.2,174.8 L251.5,175.5 L251.8,176.2 L252.1,176.9 L252.4,177.5 L252.7,178.2 L253.0,178.8 L253.2,179.4 L253.4,180.0 L253.7,180.6 L253.9,181.2 L254.1,181.8 L254.2,182.4 L254.4,182.9 L254.6,183.5 L254.7,184.0 L254.9,184.5 L255.0,185.0 L255.1,185.4 L255.2,185.9 L255.3,186.3 L255.4,186.8 L255.5,187.2 L255.6,187.5 L255.6,187.9 L255.7,188.3 L255.8,188.6 L255.8,188.9 L255.8,189.2 L255.9,189.4 L255.9,189.7 L255.9,189.9 L255.9,190.1 L256.0,190.3 L256.0,190.5 L256.0,190.6 L256.0,190.7 L256.0,190.8 L256.0,190.9 L256.0,191.0 L256.0,191.0 Z" fill="rgb(85,100,63)"/>
</svg>
